<svg width="85" height="85" viewBox="0 0 85 85" fill="none" xmlns="http://www.w3.org/2000/svg">
<path d="M7.59917 1.5218L6.11426 2.99968V9.08507C6.11426 15.8659 6.3763 16.6483 9.73918 19.3433C11.2678 20.5604 11.7919 20.6908 14.98 20.8212C18.0809 20.9516 18.8233 20.8212 20.5266 19.9084C23.4528 18.387 24.8503 15.8659 25.1997 11.5192C25.5928 5.99891 25.1124 3.21701 23.3654 1.47833L21.9242 0.0439148H15.5041H9.08408L7.59917 1.5218ZM21.4874 3.39088C22.1425 3.99942 22.2736 4.78183 22.2736 9.12854C22.2736 14.7793 21.7058 16.3875 19.2601 17.6481C17.5568 18.5174 13.8445 18.474 11.9229 17.5612C9.30245 16.3441 8.73469 14.9097 8.73469 9.21547C8.73469 2.52154 8.60366 2.65194 15.4168 2.65194C19.6968 2.65194 20.8323 2.78234 21.4874 3.39088Z" fill="#15294F"/>
<path d="M36.9481 0.739433C36.5987 1.60877 36.5987 82.8053 36.9481 83.6746C37.0791 84.0658 37.6905 84.3701 38.2583 84.3701H39.3065V42.207V0.0439529H38.2583C37.6905 0.0439529 37.0791 0.348228 36.9481 0.739433Z" fill="#15294F"/>
<path d="M57.6932 0.739414C56.0336 1.91303 55.4658 3.95598 55.4658 8.82429C55.4658 13.9969 55.9026 15.9964 57.5185 17.8654C59.4838 20.2127 61.6675 20.9951 65.5545 20.8212C68.4806 20.6908 69.1794 20.5169 70.7953 19.3868C73.8962 17.2134 74.4202 15.866 74.5949 9.78057C74.7696 3.78211 74.2019 1.82609 72.0182 0.695948C70.1839 -0.260328 59.0907 -0.216862 57.6932 0.739414ZM71.1884 3.52131C71.9308 4.26025 72.0619 4.95572 72.0619 8.82429C72.0619 13.9969 71.4504 15.7356 69.0047 17.3438C67.6945 18.2132 67.0394 18.3436 64.55 18.2132C59.5712 17.9524 58.0862 15.779 58.0862 8.86776C58.0862 2.65197 58.0862 2.65197 64.8994 2.65197C69.7472 2.65197 70.4023 2.7389 71.1884 3.52131Z" fill="#15294F"/>
<path d="M8.60374 24.8202C6.11433 25.4722 4.6731 26.3415 2.88247 28.2976C0.0436738 31.4272 0 31.6445 0 45.8583V58.6376L1.09184 59.9416C1.70328 60.6806 3.05717 61.5499 4.06166 61.8976L5.89596 62.5062L6.11433 72.1559L6.3327 81.849L7.77394 83.1096L9.1715 84.3701H15.4605C21.5749 84.3701 21.7932 84.3267 23.1034 83.24C23.8459 82.6314 24.632 81.4144 24.8941 80.545C25.1124 79.6757 25.3308 75.1986 25.3308 70.591V62.2888L26.641 61.9846C28.2569 61.6368 29.9602 60.2893 30.79 58.7245C31.7509 56.8989 31.7509 35.9478 30.79 32.8181C29.8292 29.6016 27.8639 27.2109 24.9814 25.8199C22.6667 24.6898 22.0989 24.6029 16.3777 24.5159C13.0148 24.4725 9.52089 24.6029 8.60374 24.8202ZM24.0206 28.341C25.2435 28.993 26.4226 30.1667 27.2961 31.5141L28.6063 33.644L28.7374 44.9455C28.9121 56.9424 28.6937 58.5507 26.9031 58.9419C26.4226 59.0288 25.2871 59.2027 24.37 59.3765C23.4965 59.5069 22.6667 59.9416 22.5357 60.2893C22.4047 60.6806 22.2736 65.2881 22.2736 70.591C22.2736 78.8933 22.1863 80.2842 21.5312 80.9797C20.9198 81.6317 20.0899 81.7621 15.5915 81.7621C11.3115 81.7621 10.176 81.6317 9.52089 81.0232C8.82211 80.3711 8.73476 79.4583 8.73476 70.5041C8.73476 65.1142 8.56006 60.4197 8.38537 60.1155C8.167 59.8112 6.98781 59.42 5.72127 59.2027C4.45473 58.9853 3.23186 58.5507 3.01349 58.2464C2.79512 57.8987 2.62043 52.161 2.62043 45.4236V33.2528L3.88697 31.2533C6.11433 27.7325 8.51639 26.9936 16.6397 27.1674C21.4875 27.2544 22.361 27.3848 24.0206 28.341Z" fill="#15294F"/>
<path d="M58.1299 25.0375C56.0772 25.6895 54.0245 27.3848 53.0637 29.2104C52.2339 30.7752 45.3334 65.0707 45.5081 66.7225L45.6392 68.07L50.5743 68.2004L55.4658 68.3308V74.1988C55.4658 83.8485 55.9462 84.3701 64.7683 84.3701C74.1145 84.3701 74.6822 83.7616 74.6822 74.1988V68.3308L79.6174 68.2004L84.5088 68.07L84.6399 66.9398C84.8146 65.4185 77.8704 31.0795 76.9969 29.2973C76.0361 27.2109 73.5467 25.3853 71.101 24.8202C68.1312 24.2117 60.4446 24.3421 58.1299 25.0375ZM72.3675 28.1237C74.5949 29.7754 75.0753 30.9925 76.4292 38.0777C77.1716 41.9028 78.6566 49.2487 79.7484 54.3778C80.7966 59.5069 81.67 64.1579 81.67 64.6795C81.67 65.5923 81.4953 65.6358 76.9969 65.7662L72.2802 65.8966L72.0618 73.1121C71.8871 78.3282 71.6687 80.545 71.232 81.0666C70.3585 82.1098 59.7895 82.1098 58.916 81.0666C58.4793 80.545 58.2609 78.3282 58.0862 73.1121L57.8678 65.8966L53.1947 65.7662L48.478 65.6358V64.4622C48.478 63.8102 49.3951 58.9853 50.487 53.7258C51.5788 48.4663 53.02 41.1638 53.7188 37.5126C54.5923 32.992 55.2911 30.4709 55.9025 29.6016C56.4266 28.8626 56.8633 28.2976 56.907 28.2976C56.9507 28.2976 57.7805 27.9933 58.7413 27.6456C60.0515 27.1674 61.8858 26.9935 65.8165 27.124C70.3585 27.2109 71.363 27.3848 72.3675 28.1237Z" fill="#15294F"/>
</svg>
