<svg width="100" height="85" viewBox="0 0 100 85" fill="none" xmlns="http://www.w3.org/2000/svg">
<path fill-rule="evenodd" clip-rule="evenodd" d="M68.7504 21.8745C51.5004 21.8745 37.5004 35.8785 37.5004 53.1245C37.5004 70.3705 51.5004 84.3745 68.7504 84.3745C86.0004 84.3745 100 70.3705 100 53.1245C100 35.8785 86.0004 21.8745 68.7504 21.8745ZM68.7504 24.9995C84.2664 24.9995 96.8754 37.6015 96.8754 53.1245C96.8754 68.6475 84.2664 81.2495 68.7504 81.2495C53.2344 81.2495 40.6254 68.6475 40.6254 53.1245C40.6254 37.6015 53.2344 24.9995 68.7504 24.9995ZM78.9534 72.4765C75.9065 74.0859 72.4378 74.9999 68.7504 74.9999C56.6724 74.9999 46.8754 65.1991 46.8754 53.1249C46.8754 41.0507 56.6723 31.2499 68.7504 31.2499C80.8285 31.2499 90.6254 41.0507 90.6254 53.1249C90.6254 59.5976 87.8129 65.4179 83.3285 69.4259C82.6879 70.0001 82.641 70.9884 83.2191 71.6329C83.7816 72.2735 84.7816 72.3282 85.4222 71.754C90.5316 67.172 93.7503 60.524 93.7503 53.125C93.7503 39.328 82.5473 28.125 68.7503 28.125C54.9533 28.125 43.7503 39.328 43.7503 53.125C43.7503 66.922 54.9533 78.125 68.7503 78.125C72.9691 78.125 76.9378 77.0781 80.4223 75.2344C81.1879 74.832 81.4692 73.8867 81.0629 73.125C80.6723 72.3633 79.719 72.0702 78.9534 72.4765ZM54.6874 4.6875H14.0624V2.3437C14.0624 1.72261 13.8124 1.1249 13.3749 0.6875C12.9374 0.24609 12.3437 0 11.7187 0C11.0937 0 10.4999 0.24609 10.0625 0.6875C9.625 1.125 9.375 1.7227 9.375 2.3437V4.6875H4.6875C2.0937 4.6875 0 6.7852 0 9.375V57.813C0 60.4028 2.0938 62.5005 4.6875 62.5005H6.25V64.063C6.25 65.3052 6.75 66.5005 7.625 67.3755C8.5 68.2583 9.6875 68.7505 10.9375 68.7505H35.9375C36.7969 68.7505 37.5 68.0513 37.5 67.188C37.5 66.3247 36.7969 65.6255 35.9375 65.6255H10.9375C10.5312 65.6255 10.125 65.4614 9.8281 65.1685C9.54685 64.8755 9.37498 64.4771 9.37498 64.063V62.5005H34.375C35.2344 62.5005 35.9375 61.8013 35.9375 60.938C35.9375 60.0747 35.2344 59.3755 34.375 59.3755H4.68698C3.8276 59.3755 3.12448 58.6763 3.12448 57.813V17.188H67.1865C68.0459 17.188 68.749 16.4888 68.749 15.6255V14.063H70.3115C71.1709 14.063 71.874 14.7622 71.874 15.6255V17.9693C71.874 18.8326 72.5771 19.5318 73.4365 19.5318C74.2959 19.5318 74.999 18.8326 74.999 17.9693V15.6255C74.999 13.0357 72.9052 10.938 70.3115 10.938H68.749V9.37547C68.749 6.78567 66.6552 4.68797 64.0615 4.68797H59.374V2.34417C59.374 1.72308 59.124 1.12537 58.6865 0.68797C58.249 0.24656 57.6553 0.000470161 57.0303 0.000470161C56.4053 0.000470161 55.8115 0.24656 55.3741 0.68797C54.9366 1.12547 54.6866 1.72317 54.6866 2.34417L54.6874 4.6875ZM67.1874 35.9375V53.1255C67.1874 53.5396 67.3593 53.938 67.6405 54.231L73.8905 60.481C74.4999 61.0904 75.4999 61.0904 76.1093 60.481C76.7187 59.8716 76.7187 58.8794 76.1093 58.2701L70.3124 52.4771V35.9381C70.3124 35.0748 69.6093 34.3756 68.7499 34.3756C67.8905 34.3756 67.1874 35.0742 67.1874 35.9375ZM26.5624 49.9995H29.6874C30.5468 49.9995 31.2499 49.3003 31.2499 48.437C31.2499 47.5737 30.5468 46.8745 29.6874 46.8745H26.5624C25.703 46.8745 24.9999 47.5737 24.9999 48.437C24.9999 49.3003 25.703 49.9995 26.5624 49.9995ZM14.0624 49.9995H17.1874C18.0468 49.9995 18.7499 49.3003 18.7499 48.437C18.7499 47.5737 18.0468 46.8745 17.1874 46.8745H14.0624C13.203 46.8745 12.4999 47.5737 12.4999 48.437C12.4999 49.3003 13.203 49.9995 14.0624 49.9995ZM26.5624 42.187H29.6874C30.5468 42.187 31.2499 41.4878 31.2499 40.6245C31.2499 39.7612 30.5468 39.062 29.6874 39.062H26.5624C25.703 39.062 24.9999 39.7612 24.9999 40.6245C24.9999 41.4878 25.703 42.187 26.5624 42.187ZM14.0624 42.187H17.1874C18.0468 42.187 18.7499 41.4878 18.7499 40.6245C18.7499 39.7612 18.0468 39.062 17.1874 39.062H14.0624C13.203 39.062 12.4999 39.7612 12.4999 40.6245C12.4999 41.4878 13.203 42.187 14.0624 42.187ZM14.0624 34.3745H17.1874C18.0468 34.3745 18.7499 33.6753 18.7499 32.812C18.7499 31.9487 18.0468 31.2495 17.1874 31.2495H14.0624C13.203 31.2495 12.4999 31.9487 12.4999 32.812C12.4999 33.6753 13.203 34.3745 14.0624 34.3745ZM26.5624 34.3745H29.6874C30.5468 34.3745 31.2499 33.6753 31.2499 32.812C31.2499 31.9487 30.5468 31.2495 29.6874 31.2495H26.5624C25.703 31.2495 24.9999 31.9487 24.9999 32.812C24.9999 33.6753 25.703 34.3745 26.5624 34.3745ZM14.0624 26.562H17.1874C18.0468 26.562 18.7499 25.8628 18.7499 24.9995C18.7499 24.1362 18.0468 23.437 17.1874 23.437H14.0624C13.203 23.437 12.4999 24.1362 12.4999 24.9995C12.4999 25.8628 13.203 26.562 14.0624 26.562ZM26.5624 26.562H29.6874C30.5468 26.562 31.2499 25.8628 31.2499 24.9995C31.2499 24.1362 30.5468 23.437 29.6874 23.437H26.5624C25.703 23.437 24.9999 24.1362 24.9999 24.9995C24.9999 25.8628 25.703 26.562 26.5624 26.562ZM39.0624 26.562H42.1874C43.0468 26.562 43.7499 25.8628 43.7499 24.9995C43.7499 24.1362 43.0468 23.437 42.1874 23.437H39.0624C38.203 23.437 37.4999 24.1362 37.4999 24.9995C37.4999 25.8628 38.203 26.562 39.0624 26.562ZM59.3744 7.812V8.59325C59.3744 9.21434 59.1244 9.81205 58.6869 10.2495C58.2494 10.6909 57.6557 10.937 57.0307 10.937C56.4057 10.937 55.8119 10.6909 55.3745 10.2495C54.937 9.81195 54.687 9.21425 54.687 8.59325V7.812H14.062V8.59325C14.062 9.21434 13.812 9.81205 13.3745 10.2495C12.937 10.6909 12.3433 10.937 11.7183 10.937C11.0933 10.937 10.4995 10.6909 10.0621 10.2495C9.6246 9.81195 9.3746 9.21425 9.3746 8.59325V7.812H4.6871C3.82772 7.812 3.1246 8.51122 3.1246 9.3745V14.062H65.6246V9.3745C65.6246 8.51122 64.9215 7.812 64.0621 7.812H59.3744Z" fill="#15294F"/>
</svg>
