<svg width="106" height="85" viewBox="0 0 106 85" fill="none" xmlns="http://www.w3.org/2000/svg">
<path d="M95.7263 63.9244H91.0748V43.6953C91.4011 43.9128 91.8319 44.0215 92.1582 44.0215C93.4548 44.0215 94.5383 43.2644 94.9691 42.0765L99.7293 28.0132C100.269 26.2814 99.5118 24.4452 97.9975 23.7968L81.5548 15.5772L81.559 9.73369H78.7481V0H77.1251V9.73369H74.745V0H73.0132V9.73369H70.2023V15.5731H70.4198L54.0852 23.6838C52.571 24.4409 51.8139 26.1726 52.3535 27.9002L57.1137 41.9635C57.5445 43.1515 58.6279 43.9086 59.9246 43.9086C60.2509 43.9086 60.6817 43.7998 61.008 43.5823V63.9153L45.7529 63.9237V38.29C45.7529 36.8845 44.4562 35.5879 43.0507 35.5879L18.3883 35.5837C16.9828 35.5837 15.6861 36.7717 15.6861 38.2858V63.9195H10.2776C4.6515 63.9195 0 68.4622 0 74.1971C0 79.9319 4.6515 84.37 10.2776 84.37H95.7271C101.353 84.37 106.005 79.8273 106.005 74.0924C106.005 68.3576 101.353 63.9237 95.7271 63.9237L95.7263 63.9244ZM79.501 37.3163V41.6415C79.501 42.1811 78.9614 42.6161 78.4176 42.6161H73.6574C73.1178 42.6161 72.5741 42.0765 72.5741 41.6415V37.3163H79.501ZM63.7104 35.5845C62.9533 35.5845 62.1962 36.0154 61.6566 36.5592L58.7368 28.1222V28.0134L71.499 21.6344C71.9299 23.0399 73.2308 24.0146 74.8538 24.0146H76.9076C78.5306 24.0146 79.8274 22.9312 80.2623 21.5257L93.1338 28.1223C93.1338 28.1223 93.2425 28.2311 93.2425 28.1223L90.3186 36.6681C89.779 36.0198 89.0219 35.6935 88.1561 35.6935H63.711L63.7104 35.5845ZM73.0133 15.5728H78.8527V20.5504C78.8527 21.6338 77.9868 22.4955 76.9076 22.4955H74.8538C73.7704 22.4955 72.9087 21.6296 72.9087 20.5504L72.9045 15.5728H73.0133ZM98.1073 27.5822L93.3471 41.6455C93.1296 42.1851 92.59 42.5113 92.0504 42.5113C91.5109 42.5113 91.2933 41.5367 91.1846 41.2147C90.967 40.1313 91.0758 39.1608 91.5108 38.1862L94.7567 28.7745C94.9742 28.1262 94.648 27.2603 93.8909 26.8295L80.3716 19.9067V16.987L97.1366 25.424C97.9983 25.6331 98.4335 26.6076 98.1073 27.5822ZM71.9307 11.3569H79.9369V13.9545H71.9307V11.3569ZM60.7919 40.9933C60.6831 41.3196 60.4656 42.29 59.926 42.29C59.3864 42.29 58.8426 41.9637 58.6293 41.4241L53.8691 27.3608C53.5429 26.3862 53.9779 25.5203 54.735 25.0895L71.2826 16.87V19.7897L57.8726 26.495C57.2242 26.9258 56.8979 27.7916 57.1154 28.44L60.3614 37.8517C60.7922 38.9393 60.9006 40.0228 60.7919 40.9933ZM62.7369 38.2912C62.7369 37.7516 63.2765 37.2078 63.8203 37.2078H70.8518V41.6417C70.8518 43.0472 72.0398 44.3439 73.554 44.3439H78.3142C79.8284 44.3439 81.0163 43.1559 81.0163 41.6417V37.2078H88.1566C88.805 37.2078 89.3446 37.7474 89.4533 38.2912V63.9249H62.737L62.7369 38.2912ZM34.2891 41.5371C34.1803 42.0767 33.6407 42.6205 33.1011 42.6205H28.3409C27.8013 42.6205 27.2576 42.0809 27.2576 41.6458V37.3206H34.1803L34.2891 41.5371ZM17.311 38.2912C17.311 37.7516 17.8506 37.2078 18.3944 37.2078H25.748V41.6417C25.748 43.0472 26.936 44.3439 28.4502 44.3439H33.2103C34.6158 44.3439 35.808 43.1559 35.9125 41.6417V37.2078H43.0528C43.7012 37.2078 44.1362 37.6387 44.1362 38.2912V63.9249H17.3107L17.311 38.2912ZM95.7283 82.748H10.2788C5.51863 82.748 1.62432 78.8537 1.62432 74.0935C1.62432 69.3333 5.51863 65.439 10.2788 65.439H95.7283C100.489 65.439 104.383 69.3333 104.383 74.0935C104.383 78.8537 100.489 82.748 95.7283 82.748Z" fill="#15294F"/>
<path d="M10.3866 69.2239C7.68444 69.2239 5.41309 71.3864 5.41309 74.0929C5.41309 76.795 7.57564 78.9618 10.3866 78.9618C13.0887 78.9618 15.2556 76.7993 15.2556 74.0929C15.2514 71.3907 13.0888 69.2239 10.3866 69.2239ZM10.3866 77.4476C8.54603 77.4476 7.03187 75.9333 7.03187 74.2017C7.03187 72.4699 8.54614 70.9557 10.3866 70.9557C12.227 70.9557 13.6325 72.47 13.6325 74.2017C13.6283 75.9334 12.2229 77.4476 10.3866 77.4476Z" fill="#15294F"/>
<path d="M31.6942 69.2239C28.992 69.2239 26.8252 71.3864 26.8252 74.0929C26.8252 76.795 28.9877 78.9618 31.6942 78.9618C34.3963 78.9618 36.6677 76.7993 36.6677 74.0929C36.6677 71.3907 34.3963 69.2239 31.6942 69.2239ZM31.6942 77.4476C29.8536 77.4476 28.4483 75.9333 28.4483 74.2017C28.4483 72.4699 29.9625 70.9557 31.6942 70.9557C33.5347 70.9557 35.0489 72.47 35.0489 74.2017C35.0447 75.9334 33.5304 77.4476 31.6942 77.4476Z" fill="#15294F"/>
<path d="M53.0018 69.2239C50.2997 69.2239 48.1328 71.3864 48.1328 74.0929C48.1328 76.795 50.2954 78.9618 53.0018 78.9618C55.7039 78.9618 57.8708 76.7993 57.8708 74.0929C57.8708 71.3907 55.7041 69.2239 53.0018 69.2239ZM53.0018 77.4476C51.1612 77.4476 49.7559 75.9333 49.7559 74.2017C49.7559 72.4699 51.2701 70.9557 53.0018 70.9557C54.7334 70.9557 56.2477 72.47 56.2477 74.2017C56.2477 75.9334 54.8422 77.4476 53.0018 77.4476Z" fill="#15294F"/>
<path d="M74.3094 69.2239C71.6073 69.2239 69.4404 71.3864 69.4404 74.0929C69.4404 76.795 71.603 78.9618 74.3094 78.9618C77.0116 78.9618 79.1784 76.7993 79.1784 74.0929C79.1784 71.3907 77.0159 69.2239 74.3094 69.2239ZM74.3094 77.4476C72.4689 77.4476 71.0635 75.9333 71.0635 74.2017C71.0635 72.4699 72.5778 70.9557 74.3094 70.9557C76.0412 70.9557 77.5553 72.47 77.5553 74.2017C77.5553 75.9334 76.1499 77.4476 74.3094 77.4476Z" fill="#15294F"/>
<path d="M95.618 69.2239C92.9159 69.2239 90.6445 71.3864 90.6445 74.0929C90.6445 76.795 92.8071 78.9618 95.618 78.9618C98.3202 78.9618 100.487 76.7993 100.487 74.0929C100.487 71.3907 98.3245 69.2239 95.618 69.2239ZM95.618 77.4476C93.7775 77.4476 92.2633 75.9333 92.2633 74.2017C92.2633 72.4699 93.7776 70.9557 95.618 70.9557C97.4585 70.9557 98.864 72.47 98.864 74.2017C98.864 75.9334 97.4585 77.4476 95.618 77.4476Z" fill="#15294F"/>
</svg>
