<svg width="83" height="85" viewBox="0 0 83 85" fill="none" xmlns="http://www.w3.org/2000/svg">
<path d="M37.1494 0.90921C35.0025 2.05934 33.3157 4.70462 33.0473 7.27323C32.8939 8.96008 33.354 10.4936 34.7725 13.1005C34.8492 13.2539 34.1591 13.7906 33.2006 14.3657C30.9387 15.6691 28.2551 19.0045 27.22 21.7265C26.3382 24.1801 26.4916 25.2152 27.8334 25.5602C29.2135 25.9053 29.8653 25.4835 30.517 23.9117C31.5138 21.3431 31.9738 20.653 33.6224 18.9662C35.7693 16.8576 38.2612 15.9758 41.7116 16.2059C46.1971 16.4742 49.0724 18.5445 51.0659 22.9149C52.216 25.5219 52.7528 25.9436 54.2096 25.5602C55.5514 25.2152 55.7048 24.1801 54.823 21.7265C53.7879 19.0428 51.1043 15.6691 48.8807 14.3657C47.9222 13.8289 47.1555 13.3306 47.1555 13.3306C47.1555 13.2922 47.5772 12.4105 48.1139 11.3753C49.5708 8.53837 49.3024 5.93142 47.3088 3.05611C45.277 0.0657864 40.5998 -0.892653 37.1494 0.90921ZM43.4368 4.62795C44.5869 5.54805 45.3536 7.61827 45.0469 8.96008C44.6252 10.6469 42.785 12.0271 41.0215 12.0271C39.718 12.0271 39.1813 11.7587 38.2229 10.8003C37.1877 9.80351 36.9961 9.30512 36.9961 7.8483C36.9961 6.35313 37.1877 5.93142 38.2612 4.97298C39.7947 3.59283 41.9416 3.47782 43.4368 4.62795Z" fill="#15294F"/>
<path d="M12.8435 11.4906C11.2334 11.9123 9.54651 12.8324 8.54973 13.9058C6.3645 16.2061 5.90445 20.1932 7.43795 23.1068L8.35805 24.7937L6.6712 25.8671C2.45407 28.5507 -1.26466 35.0298 0.460523 36.755C1.07392 37.3684 2.87579 37.33 3.33583 36.7166C3.52752 36.4866 4.02591 35.4131 4.40929 34.3397C7.09291 27.0939 17.1373 25.2537 22.3512 31.081C23.1947 31.9628 24.0764 33.3429 24.3831 34.1097C25.5716 37.0233 25.7633 37.2533 26.9517 37.1383C28.6386 36.985 29.022 36.1032 28.4469 33.8796C27.7568 31.2727 25.6483 28.359 23.003 26.4422C21.7378 25.5221 20.7027 24.717 20.7027 24.6403C20.7027 24.602 21.0094 23.9119 21.4311 23.1068C22.5813 20.8066 22.7346 19.4264 22.0829 17.1262C20.9327 13.2157 16.6006 10.6088 12.8435 11.4906ZM17.2907 16.4744C19.7059 18.928 18.1341 23.4135 14.7987 23.4135C12.9585 23.4135 11.5401 22.6851 10.8883 21.4583C9.35482 18.4296 11.08 15.3626 14.377 15.3626C15.8339 15.3626 16.3706 15.5543 17.2907 16.4744Z" fill="#15294F"/>
<path d="M65.6338 11.6056C64.4454 11.874 63.4102 12.4874 62.1068 13.7525C59.2698 16.5128 58.7714 19.5798 60.6116 23.1452C60.995 23.9503 61.34 24.6404 61.34 24.6787C61.34 24.7171 60.3049 25.5222 59.0398 26.4423C56.3945 28.3591 54.2859 31.2728 53.5958 33.8797C53.0208 36.1033 53.4042 36.9851 55.091 37.1384C56.1645 37.2534 56.2795 37.1001 57.2762 34.7615C59.2315 30.2377 62.8352 27.6307 67.3207 27.6307C68.5858 27.6307 70.4643 27.9374 71.4995 28.2825C73.9531 29.0875 76.7134 31.8478 77.6335 34.3398C78.5536 36.8701 78.8603 37.2151 80.1637 37.2151C84.2658 37.2151 80.4704 28.8192 74.8732 25.5222L73.6847 24.8321L74.6431 23.0686C76.5983 19.4265 75.2182 14.6343 71.6145 12.5641C69.5826 11.414 67.7807 11.1073 65.6338 11.6056ZM70.3493 16.2061C72.3045 17.9313 71.9595 21.7267 69.7359 22.8385C66.7073 24.4104 63.6403 22.6852 63.6403 19.3882C63.6403 17.9313 63.832 17.3946 64.7521 16.4745C66.2089 15.0177 68.8158 14.9027 70.3493 16.2061Z" fill="#15294F"/>
<path d="M0.843425 42.0455C0.076675 42.5823 0 42.9273 0 46.2626C0 49.7514 0.0383375 49.9814 1.07345 50.9782C1.80186 51.7066 2.72196 52.1283 3.9871 52.32C7.28412 52.8184 7.43747 52.9334 9.00931 56.9205L10.4661 60.6009L9.04765 62.7094C8.01254 64.2813 7.6675 65.2014 7.6675 66.4282C7.6675 67.9233 7.85919 68.23 11.9996 72.3705C17.3285 77.7761 17.8653 77.9678 21.6223 75.6292L24.0759 74.0573L27.6797 75.5142L31.2451 76.9326L31.9351 79.808C33.0086 84.2934 33.1619 84.3701 41.0211 84.3701C48.8803 84.3701 49.0337 84.2934 50.1071 79.808L50.7972 76.9326L54.3626 75.5142L57.9663 74.0573L60.4199 75.6292C64.177 77.9678 64.7137 77.7761 70.0809 72.3705C74.068 68.3067 74.3747 67.9233 74.3747 66.5048C74.3747 65.4697 73.953 64.3579 72.9946 62.7861L71.5761 60.5242L73.0329 56.8821C74.6048 52.9717 74.7198 52.8184 78.0551 52.32C79.3203 52.1283 80.2404 51.7066 80.9688 50.9782C82.0039 49.9814 82.0422 49.7514 82.0422 46.2626C82.0422 41.2021 82.5406 41.4321 71.6528 41.4321C61.9534 41.4321 61.7234 41.5088 61.7234 44.1541C61.685 47.9112 59.2314 54.0068 56.3561 57.2272C54.5159 59.3357 51.2572 61.5976 48.2669 62.7861C45.4683 63.8979 40.3694 64.3196 36.9957 63.7062C31.2834 62.6711 25.4944 58.3006 22.8491 53.0484C21.3923 50.0964 20.3189 46.3777 20.3189 44.0774C20.3189 41.5088 20.0122 41.4321 10.3128 41.4321C3.14367 41.4321 1.57184 41.5471 0.843425 42.0455ZM17.0985 48.3329C17.8653 52.8567 20.1655 57.0738 23.9226 60.7926C27.4496 64.2429 30.3633 65.8914 35.1171 67.1182C48.3052 70.4919 62.1067 61.9427 64.7904 48.7929L65.4421 45.4576H71.7294H78.0168V46.9527V48.4862L75.0648 49.0996C73.4163 49.4447 71.9978 49.7897 71.9211 49.9047C71.4994 50.3264 67.474 60.0641 67.474 60.6775C67.474 61.0993 68.1641 62.4411 69.0075 63.6679C69.8509 64.8947 70.541 66.0831 70.541 66.2365C70.541 66.4282 69.0458 68.0767 67.1673 69.9169L63.8319 73.2522L61.1483 71.4504C58.848 69.9169 58.388 69.7252 57.5446 70.0702C46.2734 74.5941 47.3085 73.8656 46.35 78.3511L45.89 80.5364H40.9828H36.0756L35.6539 78.3128C34.7721 73.904 35.7689 74.5941 24.4977 70.0702C23.6542 69.7252 23.1942 69.9169 20.8939 71.4504L18.2103 73.2522L14.8749 69.9169C12.9964 68.0767 11.5012 66.4282 11.5012 66.2365C11.5012 66.0831 12.1913 64.8947 13.0347 63.6679C13.8782 62.4411 14.5682 61.0993 14.5682 60.7159C14.5682 60.1025 10.5428 50.3648 10.1211 49.9047C10.0444 49.7897 8.62594 49.4447 6.97742 49.0996C4.21712 48.5246 4.02544 48.4095 3.91042 47.4128C3.64206 45.2275 3.64206 45.2275 10.4278 45.3426L16.6385 45.4576L17.0985 48.3329Z" fill="#15294F"/>
</svg>
