<svg width="93" height="85" viewBox="0 0 93 85" fill="none" xmlns="http://www.w3.org/2000/svg">
<path d="M45.3127 44.7127V61.9375C45.3127 63.155 44.8143 64.2608 44.0135 65.0616C43.2127 65.8624 42.1068 66.3608 40.8893 66.3608H11.4024C10.1849 66.3608 9.07905 65.8624 8.27823 65.0616C7.47748 64.2609 6.979 63.155 6.979 61.9375V44.7127C6.979 33.5703 11.9552 26.4038 18.3181 23.2556C20.7966 22.0299 23.4877 21.4143 26.1784 21.4116C28.8695 21.4089 31.5577 22.0217 34.0339 23.2474C40.3692 26.3851 45.3158 33.535 45.3158 44.7102L45.3127 44.7127ZM44.2232 61.9375V44.7127C44.2232 34.0082 39.5439 27.191 33.5514 24.222C31.2254 23.0699 28.7005 22.4951 26.1785 22.4978C23.6564 22.5006 21.1287 23.078 18.7999 24.2301C12.7778 27.2099 8.071 34.0408 8.071 44.7125V61.9373C8.071 62.8524 8.44687 63.6886 9.05151 64.2933C9.65618 64.8979 10.4896 65.2738 11.4075 65.2738H40.8945C41.8097 65.2738 42.6458 64.8979 43.2505 64.2933C43.8552 63.6886 44.231 62.8552 44.231 61.9373L44.2232 61.9375Z" fill="black"/>
<path d="M41.8206 47.8149V60.2215C41.8206 60.916 41.4775 61.5397 40.9218 61.9837C40.3988 62.4031 39.688 62.6619 38.9117 62.6619H13.3797C12.6034 62.6619 11.8925 62.4031 11.3696 61.9837C10.8139 61.5397 10.4707 60.916 10.4707 60.2215V48.0032C10.4707 45.1432 14.4146 43.4436 19.5269 42.7436C21.4798 42.4767 23.6125 42.3514 25.756 42.3569C27.8996 42.3623 30.0514 42.5012 32.0451 42.7654C37.5007 43.49 41.8229 45.2086 41.8229 47.8125L41.8206 47.8149ZM40.7312 60.2215V47.8149C40.7312 45.8729 36.8307 44.4974 31.9037 43.8464C29.9535 43.5877 27.8481 43.4515 25.7562 43.446C23.6644 43.4406 21.5808 43.5632 19.6714 43.8246C15.0901 44.4511 11.5601 45.8211 11.5601 48.0056V60.2239C11.5601 60.5725 11.748 60.8966 12.0503 61.139C12.3853 61.4087 12.8565 61.5748 13.3795 61.5748H38.9115C39.4345 61.5748 39.9057 61.4087 40.2406 61.139C40.543 60.8966 40.7309 60.5725 40.7309 60.2239L40.7312 60.2215Z" fill="black"/>
<path d="M41.0499 52.1894C41.3468 52.1894 41.5865 51.9443 41.5865 51.6447C41.5865 51.3451 41.3468 51.1 41.0499 51.1H11.2387C10.9418 51.1 10.7021 51.3451 10.7021 51.6447C10.7021 51.9443 10.9418 52.1894 11.2387 52.1894H41.0499ZM11.2387 47.6953C10.9418 47.6953 10.7021 47.9404 10.7021 48.2401C10.7021 48.5397 10.9418 48.7848 11.2387 48.7848H41.0499C41.3468 48.7848 41.5865 48.5397 41.5865 48.2401C41.5865 47.9404 41.3468 47.6953 41.0499 47.6953H11.2387Z" fill="black"/>
<path d="M17.8902 51.9168C17.8902 51.6172 17.6451 51.3721 17.3455 51.3721C17.0459 51.3721 16.8007 51.6172 16.8007 51.9168V53.7744C16.8007 54.5126 16.621 54.9538 16.3922 55.1227C16.3104 55.1826 16.2424 55.1826 16.1606 55.1227C15.9319 54.9538 15.7521 54.5126 15.7521 53.7744V51.9168C15.7521 51.6172 15.507 51.3721 15.2073 51.3721C14.9077 51.3721 14.6626 51.6172 14.6626 51.9168V53.7744C14.6626 54.8966 15.0385 55.6456 15.5179 55.9997C15.9836 56.3429 16.5665 56.3429 17.035 55.9997C17.5144 55.6483 17.8903 54.8993 17.8903 53.7744L17.8902 51.9168Z" fill="black"/>
<path d="M18.7127 23.2115C18.6365 23.5029 18.8108 23.7971 19.1022 23.8733C19.3937 23.9496 19.6878 23.7753 19.7641 23.4838C20.6411 20.1009 21.9921 17.8702 23.5119 16.6364C24.359 15.95 25.2551 15.6068 26.143 15.6041C27.0309 15.6041 27.9271 15.9446 28.7768 16.631C30.2967 17.8566 31.5496 19.9893 32.4294 23.3585C32.5056 23.65 32.7998 23.8243 33.0912 23.748C33.3827 23.6718 33.557 23.3776 33.4807 23.0862C32.5383 19.4745 31.1492 17.1485 29.4578 15.7836C28.4119 14.9393 27.2815 14.5171 26.143 14.5171C25.0045 14.5171 23.8742 14.942 22.8255 15.7918C21.1341 17.1618 19.6497 19.5859 18.71 23.2087L18.7127 23.2115Z" fill="black"/>
<path d="M22.7983 27.8198H29.4905C30.1905 27.8198 30.7625 28.3918 30.7625 29.0918V32.2921C30.7625 32.9921 30.1905 33.5641 29.4905 33.5641H22.7983C22.0983 33.5641 21.5264 32.9921 21.5264 32.2921V29.0918C21.5264 28.3918 22.0983 27.8198 22.7983 27.8198ZM29.4905 28.9093H22.7983C22.6976 28.9093 22.6158 28.991 22.6158 29.0918V32.2921C22.6158 32.3929 22.6976 32.4746 22.7983 32.4746H29.4905C29.5913 32.4746 29.673 32.3929 29.673 32.2921V29.0918C29.673 28.991 29.5913 28.9093 29.4905 28.9093Z" fill="black"/>
<path d="M45.0703 57.7238C44.7761 57.6638 44.4874 57.8572 44.4302 58.1514C44.3703 58.4455 44.5637 58.7343 44.8578 58.7915C47.7641 59.3716 49.4936 59.2518 50.6702 58.7288C51.6671 58.2876 52.1601 57.5549 52.2718 56.6424C52.3726 55.8144 52.1356 54.8502 51.6671 53.837C50.436 51.1814 47.6824 48.1717 45.231 46.4501C44.9858 46.2785 44.6454 46.3357 44.4738 46.5808C44.3022 46.826 44.3594 47.1664 44.6045 47.338C46.9278 48.9723 49.5236 51.8049 50.6784 54.2917C51.0652 55.1279 51.264 55.8933 51.1905 56.5088C51.1251 57.04 50.8309 57.4703 50.2317 57.7345C49.2539 58.1703 47.7422 58.2547 45.0703 57.7209V57.7238Z" fill="black"/>
<path d="M7.4205 58.7939C7.71466 58.734 7.90804 58.448 7.84812 58.1539C7.7882 57.8597 7.50221 57.6663 7.20804 57.7262C4.53609 58.2601 3.04072 58.1702 2.06294 57.7371C1.46372 57.4702 1.16959 57.0426 1.10419 56.5115C1.02792 55.8959 1.22948 55.1305 1.61624 54.2943C2.77107 51.8076 5.4267 48.9313 7.75008 47.2972C7.99522 47.1256 8.05514 46.7851 7.88082 46.54C7.70923 46.2949 7.36876 46.235 7.12365 46.4093C4.67232 48.1335 1.85869 51.1867 0.627582 53.8422C0.159098 54.8554 -0.0778488 55.8169 0.0229141 56.6476C0.134589 57.5601 0.627582 58.2928 1.62448 58.734C2.80113 59.257 4.51705 59.3795 7.42056 58.7994L7.4205 58.7939Z" fill="black"/>
<path fill-rule="evenodd" clip-rule="evenodd" d="M77.8791 52.5582H64.2878H64.2442C59.4205 52.2749 55.1365 50.2185 52.4833 46.9119C50.3561 44.259 49.4764 40.996 50.002 37.733C50.002 37.7058 50.0156 37.6622 50.0293 37.6349L55.0518 22.4992C55.1362 22.2296 55.4059 22.0308 55.6891 22.0308H86.5163C86.8131 22.0308 87.0692 22.216 87.1536 22.4992L92.0045 37.8204C92.0182 37.8477 92.0182 37.8776 92.0318 37.9185C92.5711 41.2795 91.6913 44.5725 89.5505 47.2089C86.9411 50.4284 82.7984 52.3159 77.9039 52.5583H77.8767L77.8791 52.5582ZM64.3178 51.21H77.8658C82.3763 50.9975 86.1647 49.2652 88.518 46.359C90.4056 44.0466 91.1846 41.1376 90.7161 38.1744L86.034 23.379H56.1873L51.3363 38.0189C50.8815 40.8707 51.6768 43.736 53.548 46.0759C55.9449 49.0829 59.8752 50.9568 64.3146 51.2102L64.3178 51.21Z" fill="black"/>
<path fill-rule="evenodd" clip-rule="evenodd" d="M74.0632 39.1375H68.1772C60.9291 39.1375 55.0273 33.2352 55.0273 25.9876V22.711C55.0273 22.3433 55.3242 22.03 55.7083 22.03H86.5354C86.9031 22.03 87.2163 22.3269 87.2163 22.711V25.9876C87.2027 33.2357 81.314 39.1375 74.0665 39.1375H74.0632ZM56.3727 23.3916V25.9874C56.3727 32.4998 61.6648 37.7894 68.1747 37.7894H74.0607C80.573 37.7894 85.8627 32.4973 85.8627 25.9874V23.3916H56.3702H56.3727Z" fill="black"/>
<path fill-rule="evenodd" clip-rule="evenodd" d="M57.9197 23.3918C57.552 23.3918 57.2388 23.0949 57.2388 22.7109V14.1853C57.2388 6.36819 63.4243 0 71.0427 0C74.7306 0 78.1925 1.47627 80.8017 4.15637C83.3974 6.83655 84.8301 10.3991 84.8301 14.1852V22.7108C84.8301 23.0785 84.5332 23.3917 84.1491 23.3917C83.7651 23.3917 83.4682 23.0948 83.4682 22.7108V14.1852C83.4682 10.737 82.1771 7.51758 79.8211 5.09072C77.4814 2.68025 74.3601 1.3456 71.0264 1.3456C64.1599 1.3456 58.571 7.10625 58.571 14.1852V22.7107C58.5847 23.0948 58.2878 23.3917 57.9173 23.3917L57.9197 23.3918Z" fill="black"/>
<path fill-rule="evenodd" clip-rule="evenodd" d="M71.1263 36.131C71.0119 36.131 70.9002 36.1037 70.7858 36.0465L68.2745 34.5866C68.0621 34.4586 67.9341 34.2461 67.9341 34.0037V31.1247C67.9341 30.8823 68.0621 30.6562 68.2745 30.5418L70.7858 29.0956C70.9983 28.9812 71.2543 28.9812 71.4532 29.0956L73.9508 30.5418C74.1632 30.6562 74.2913 30.8823 74.2913 31.1247V34.0037C74.2913 34.2461 74.1632 34.4722 73.9508 34.5866L71.4532 36.0465C71.3551 36.1037 71.2407 36.131 71.1263 36.131ZM69.2824 33.6197L71.1127 34.6846L72.9295 33.6197V31.5061L71.1127 30.4575L69.2824 31.5061V33.6197Z" fill="black"/>
<path d="M86.4627 75.7377C83.0213 75.9112 65.3054 76.8188 49.2406 77.9432C48.3175 78.0083 47.6763 78.033 46.747 77.9835C43.4263 77.8038 34.3532 77.0201 30.5959 73.7986C31.0977 73.3339 32.8541 72.3829 38.9351 71.909C41.9244 71.6767 43.7086 70.7939 46.1156 69.6012C48.8849 68.2289 51.5799 66.8411 54.2843 65.3388C56.6602 64.016 59.4078 62.43 62.5554 60.525C64.2746 60.7852 65.777 62.142 66.6164 63.0558C67.109 63.5948 67.2546 63.8364 67.6387 64.3537C69.0017 66.1875 71.0554 67.6961 73.4096 67.6001C77.2167 67.3647 79.2333 63.886 79.509 63.3749C80.5808 62.0398 82.173 62.6191 82.5539 62.7863C84.6759 64.9113 85.6981 68.3126 86.1535 71.695C86.3393 73.0765 86.4292 74.455 86.4601 75.7436L86.4627 75.7377ZM29.314 73.5228C28.8648 74.1052 28.4188 75.1894 28.298 75.9204C27.9387 78.0733 29.2149 79.6872 31.4731 80.8891C33.5578 82.0011 36.5131 82.7632 39.7592 83.2836C47.1162 84.4638 56.0222 84.4111 59.4448 84.3367C61.2291 84.2965 60.5321 84.3089 62.7965 84.219C68.4467 83.9929 84.7311 83.3455 85.4313 83.3176C86.9616 83.3765 87.4479 83.0698 87.5036 81.7563C87.5129 81.5209 87.5222 81.2205 87.5563 80.7836C87.7267 78.6617 87.8661 75.118 87.3828 71.5213C86.8934 67.8816 85.7627 64.1891 83.3682 61.8379C83.2196 61.68 82.8881 61.5746 82.7084 61.5127C81.8194 61.2153 79.8926 60.8591 78.508 62.6403C78.4739 62.6867 78.4522 62.7208 78.4274 62.7735C78.2323 63.1421 76.5161 66.1809 73.307 66.3605C71.4483 66.4287 69.8376 65.0874 68.71 63.6811C68.3724 63.2629 68.1246 62.8912 67.759 62.4761C66.935 61.5375 65.2809 59.9236 63.2674 59.4063C62.9359 59.3195 62.3753 59.1647 62.0748 59.3691C58.8966 61.2928 56.1118 62.9066 53.6864 64.2542C51.0038 65.7473 48.3181 67.1288 45.5707 68.4887C43.2878 69.6193 41.5964 70.4588 38.8457 70.6725C31.4422 71.2456 29.7047 72.9183 29.3137 73.5193L29.314 73.5228ZM49.3374 79.1761C65.3799 78.0547 82.9347 77.1533 86.4754 76.9737C86.4692 78.4234 86.398 79.712 86.3206 80.6878C86.2896 81.0812 86.2772 81.4374 86.2679 81.7193C86.2493 82.1158 86.1471 82.2057 85.224 82.215C80.8872 82.3606 64.4694 82.915 62.8929 82.977C61.7685 83.0204 60.6502 83.073 59.5289 83.0978C56.2391 83.1722 47.3023 83.2434 39.9511 82.0632C36.8287 81.5614 34.0036 80.8396 32.0521 79.7987C30.274 78.8509 29.2611 77.649 29.5151 76.1218C29.5801 75.7315 29.7226 75.3134 29.9519 74.8673C34.1182 78.2283 43.3774 79.0337 46.7223 79.2164C47.8747 79.2784 48.1751 79.2567 49.3337 79.1762L49.3374 79.1761Z" fill="black"/>
</svg>
