<svg width="32" height="28" viewBox="0 0 32 28" fill="none" xmlns="http://www.w3.org/2000/svg">
<ellipse cx="16.1737" cy="14" rx="15.828" ry="14" fill="#27272A"/>
<path d="M16.1743 8.44721C18.2192 8.44721 18.4614 8.45398 19.2692 8.48656C19.7549 8.49182 20.236 8.5707 20.6915 8.71979C21.0219 8.83248 21.3219 9.00511 21.5723 9.22656C21.8227 9.44802 22.0178 9.71339 22.1452 10.0056C22.3138 10.4085 22.403 10.8341 22.4089 11.2637C22.4454 11.9782 22.4534 12.1924 22.4534 14.0011C22.4534 15.8098 22.4457 16.024 22.4089 16.7385C22.403 17.1681 22.3138 17.5936 22.1452 17.9966C22.0178 18.2888 21.8227 18.5541 21.5723 18.7756C21.3219 18.997 21.0219 19.1697 20.6915 19.2824C20.236 19.4315 19.7549 19.5103 19.2692 19.5156C18.4618 19.5479 18.2196 19.5549 16.1743 19.5549C14.1291 19.5549 13.8869 19.5482 13.0795 19.5156C12.5938 19.5103 12.1127 19.4315 11.6572 19.2824C11.3268 19.1697 11.0268 18.997 10.7764 18.7756C10.526 18.5541 10.3309 18.2888 10.2035 17.9966C10.0349 17.5936 9.94573 17.1681 9.93978 16.7385C9.90331 16.024 9.89529 15.8098 9.89529 14.0011C9.89529 12.1924 9.90295 11.9782 9.93978 11.2637C9.94573 10.8341 10.0349 10.4085 10.2035 10.0056C10.3309 9.71339 10.526 9.44802 10.7764 9.22656C11.0268 9.00511 11.3268 8.83248 11.6572 8.71979C12.1127 8.5707 12.5938 8.49182 13.0795 8.48656C13.8873 8.4543 14.1295 8.44721 16.1743 8.44721ZM16.1743 7.22656C14.0956 7.22656 13.8337 7.2343 13.0168 7.26721C12.3811 7.27839 11.7522 7.38485 11.1568 7.58205C10.646 7.75226 10.1834 8.019 9.8012 8.36366C9.41118 8.70184 9.10936 9.11127 8.9168 9.56334C8.69385 10.09 8.57349 10.6463 8.56085 11.2085C8.52438 11.9304 8.51562 12.162 8.51562 14.0008C8.51562 15.8395 8.52438 16.0711 8.56158 16.7937C8.57422 17.3559 8.69458 17.9122 8.91753 18.4388C9.10987 18.8908 9.41145 19.3002 9.8012 19.6385C10.1836 19.9832 10.6465 20.25 11.1575 20.4201C11.7529 20.6173 12.3818 20.7238 13.0175 20.7349C13.8344 20.7672 14.0952 20.7756 16.1751 20.7756C18.255 20.7756 18.5157 20.7679 19.3327 20.7349C19.9683 20.7238 20.5972 20.6173 21.1926 20.4201C21.7012 20.2457 22.1631 19.9794 22.5487 19.6381C22.9343 19.2968 23.2351 18.8882 23.4319 18.4382C23.6548 17.9115 23.7752 17.3553 23.7878 16.793C23.8243 16.0711 23.8331 15.8395 23.8331 14.0008C23.8331 12.162 23.8243 11.9304 23.7871 11.2079C23.7745 10.6456 23.6541 10.0893 23.4312 9.56269C23.2388 9.11068 22.9372 8.70126 22.5475 8.36301C22.1651 8.01828 21.7022 7.75153 21.1912 7.5814C20.5958 7.3842 19.9669 7.27775 19.3312 7.26656C18.515 7.2343 18.2531 7.22656 16.1743 7.22656Z" fill="white"/>
<path d="M16.1751 10.5234C15.3973 10.5234 14.6369 10.7275 13.9901 11.1097C13.3433 11.492 12.8392 12.0353 12.5416 12.6709C12.2439 13.3066 12.166 14.006 12.3178 14.6808C12.4695 15.3556 12.8441 15.9755 13.3941 16.462C13.9442 16.9485 14.6449 17.2798 15.4078 17.414C16.1708 17.5482 16.9615 17.4794 17.6802 17.2161C18.3988 16.9528 19.0131 16.5069 19.4452 15.9348C19.8774 15.3627 20.1081 14.6902 20.1081 14.0021C20.1081 13.0795 19.6937 12.1947 18.9561 11.5423C18.2186 10.8899 17.2182 10.5234 16.1751 10.5234ZM16.1751 16.2602C15.6702 16.2602 15.1766 16.1278 14.7568 15.8797C14.337 15.6315 14.0098 15.2789 13.8165 14.8663C13.6233 14.4537 13.5728 13.9996 13.6713 13.5616C13.7698 13.1236 14.0129 12.7213 14.3699 12.4055C14.727 12.0897 15.1819 11.8746 15.6771 11.7875C16.1723 11.7003 16.6856 11.7451 17.1521 11.916C17.6186 12.0869 18.0173 12.3763 18.2978 12.7476C18.5783 13.119 18.728 13.5555 18.728 14.0021C18.728 14.601 18.4591 15.1754 17.9803 15.5988C17.5015 16.0223 16.8522 16.2602 16.1751 16.2602Z" fill="white"/>
<path d="M20.2608 11.1981C20.7684 11.1981 21.1799 10.8341 21.1799 10.3852C21.1799 9.93621 20.7684 9.57227 20.2608 9.57227C19.7533 9.57227 19.3418 9.93621 19.3418 10.3852C19.3418 10.8341 19.7533 11.1981 20.2608 11.1981Z" fill="white"/>
</svg>
