<svg width="33" height="28" viewBox="0 0 33 28" fill="none" xmlns="http://www.w3.org/2000/svg">
<ellipse cx="16.7226" cy="14" rx="15.828" ry="14" fill="#27272A"/>
<path d="M23.7365 10.9831C23.2627 11.1693 22.7627 11.2857 22.2363 11.3556C22.7627 11.0762 23.1838 10.6339 23.368 10.0985C22.8679 10.3546 22.3153 10.5408 21.7099 10.6572C21.2362 10.2149 20.5519 9.93555 19.815 9.93555C18.3938 9.93555 17.2358 10.9598 17.2358 12.2169C17.2358 12.4031 17.2621 12.5661 17.3147 12.729C15.1829 12.6359 13.2616 11.728 11.972 10.3313C11.7615 10.6805 11.6299 11.0529 11.6299 11.472C11.6299 12.2634 12.0773 12.9618 12.7879 13.3808C12.3668 13.3576 11.972 13.2644 11.6036 13.1015V13.1248C11.6036 14.2422 12.4984 15.1733 13.6827 15.3828C13.4722 15.4294 13.2353 15.4527 12.9985 15.4527C12.8405 15.4527 12.6563 15.4294 12.4984 15.4061C12.8405 16.314 13.788 16.9891 14.9197 16.9891C14.0249 17.5943 12.9195 17.9668 11.7088 17.9668C11.4983 17.9668 11.2877 17.9668 11.1035 17.9435C12.2615 18.5953 13.6038 18.9678 15.0776 18.9678C19.8413 18.9678 22.4468 15.476 22.4468 12.4497C22.4468 12.3566 22.4468 12.2402 22.4468 12.1471C22.9469 11.8444 23.3943 11.4487 23.7365 10.9831Z" fill="white"/>
</svg>
